<?xml version="1.0" encoding="utf-8"?>
<svg version="1.1" xmlns="http://www.w3.org/2000/svg" xmlns:xlink="http://www.w3.org/1999/xlink" x="0px" y="0px" viewBox="0 0 332 332" style="enable-background:new 0 0 332 332;" xml:space="preserve">
	<g>
		<defs>
			<circle id="SVGID_25_" cx="166" cy="166" r="166"/>
		</defs>
		<use xlink:href="#SVGID_25_"  style="overflow:visible;fill:#FFFFFF;"/>
		<clipPath id="SVGID_2_">
			<use xlink:href="#SVGID_25_"  style="overflow:visible;"/>
		</clipPath>
		<circle style="clip-path:url(#SVGID_2_);fill:#1A237E;" cx="175.2" cy="165.8" r="208.3"/>
		<g style="clip-path:url(#SVGID_2_);">
			<path style="fill:#FFFFFF;" d="M34.2,128.8l8,13.2c3.4,5.7,6.9,11.6,9.5,17.9l19.3,7.1c-1-2.1-1.7-4.4-1.3-7
				c0.4-2.4,1.2-4.8,2.3-7.2c-0.3-0.2-0.7-0.5-0.9-0.8l-15-22.8c-0.2-0.3-0.4-0.6-0.6-0.9c-1-0.5-1.6-1.5-1.7-2.5
				c-4.2-6.3-8.6-12.9-13.6-18.9c-4.3,0.8-8.6,1.3-12.9,1.3c-1.2,0-2.4-0.1-3.6-0.1c-0.5,1.3-1,2.6-1.5,3.9c0.5,0.2,1,0.5,1.3,0.9
				C27.6,117.8,31,123.4,34.2,128.8z"/>
			<path style="fill:#FFFFFF;" d="M307.7,152.9c-2.6,1.5-5.3,2.3-8,2.3c-0.3,0-0.6-0.1-1-0.1l-22,33.1l14.1-3l5.9-0.7l22.1-27.8
				c-0.2-4.3-0.6-8.6-1.2-12.8l-1.9,2C313.5,148.3,311,151,307.7,152.9z"/>
			<path style="fill:#FFFFFF;" d="M36.6,145.4l-8-13.2c-2.7-4.5-5.6-9.1-8.8-13.4c-2.5,8.1-4.3,16.5-5.5,25.2l28.4,12.2
				C40.8,152.5,38.7,148.9,36.6,145.4z"/>
			<path style="fill:#FFFFFF;" d="M290.2,122l-14.8,12.5c-6.3,5.4-12.9,10.8-20.6,14.7l-0.7,10.7c-0.7,10.8-0.9,20.5,2.6,28.6h11.8
				l24-36.1c-1.9-2.2-1.7-5.2-1.6-6.5c0.6-6.3,1.8-12.5,3.7-18.5c0.6-1.7,2.4-2.7,4.1-2.2c1.7,0.5,2.7,2.4,2.2,4.1
				c-1.7,5.6-2.9,11.3-3.4,17.2c-0.1,1.2,0,1.6,0,1.7c2,0.6,4.5,0.2,6.7-1.1c2.4-1.4,4.5-3.6,6.5-5.8l5-5.4c0.1-0.1,0.3-0.2,0.4-0.3
				c-2-10.7-5.1-21.1-9.3-30.9C302.4,111.6,296,117.1,290.2,122z"/>
			<path style="fill:#FFFFFF;" d="M226.7,176.3c-1.7-3.1-3.7-6.6-4.1-10.7c-0.4-4.3,0.9-8.3,2.2-11.7c0.4-1,0.9-2,1.4-3.1
				c1-2.2,2.2-4.6,1.9-6.1c-0.4-2.2-2-4.4-3.6-6.7c-2.8-3.9-6.2-8.7-4.7-15.1c0.3-1.3,0.8-2.6,1.3-3.9c-3.6-6.1-6-13-6.7-20
				c-0.2-1.8,1.1-3.4,2.9-3.6c1.8-0.1,3.4,1.1,3.6,2.9c0.5,4.7,1.8,9.3,3.8,13.6c0.4-0.7,0.8-1.3,1.2-2c2.4-3.9,4.6-7.6,5.6-11.6
				c0.5-1.8,2.3-2.8,4-2.4c1.8,0.5,2.8,2.3,2.4,4c-1.3,4.8-3.9,9.1-6.3,13.3c-2.3,3.9-4.5,7.5-5.4,11.1c-0.8,3.3,0.9,5.9,3.6,9.8
				c1.2,1.7,2.5,3.6,3.4,5.5c2.6-3.5,4.7-7.4,6.1-11.5c0.6-1.7,2.5-2.6,4.2-2c1.7,0.6,2.6,2.5,2,4.2c-2.2,6.4-5.9,12.5-10.6,17.4
				c-0.2,0.2-0.5,0.4-0.8,0.6c-0.5,1.9-1.3,3.7-2.1,5.3c-0.4,0.9-0.9,1.8-1.2,2.6c-1.1,2.9-2.1,5.9-1.8,8.7c0.3,2.7,1.8,5.5,3.3,8.1
				c2.4,4.3,4.6,8.3,7.6,11.8c0.5,0.6,1,1.1,1.4,1.7c0.6,0.6,1.2,1.3,1.8,2.1h6.5c-3.3-9.6-2.7-20.2-2.2-29l1.8-29.2
				c0.4-6.2,0.8-12.6,2.8-18.8c1.1-3.2,2.5-6.2,4.2-9.1c-5.8-3.4-11-8.1-15.1-13.5c-0.4-0.3-0.7-0.7-0.9-1.2c0,0,0-0.1,0-0.1
				c-3.6-5.1-6.4-10.9-8-16.9c-0.5-1.8,0.6-3.6,2.4-4c1.7-0.4,3.6,0.6,4,2.4c1.2,4.6,3.2,9,5.7,13c4.8-3.3,7.8-9.4,6.9-15.2
				c-0.3-1.8,1-3.5,2.8-3.8c1.8-0.3,3.5,1,3.8,2.8c1.2,8.2-2.7,16.7-9.5,21.4c3.2,3.7,7,6.9,11.2,9.4c0.3-0.5,0.6-1,0.9-1.5
				c4-6.3,7.7-12.2,8.7-19c0.3-1.8,1.9-3,3.8-2.8c1.8,0.3,3,2,2.8,3.8c-1.2,8.1-5.5,14.9-9.7,21.5c-3.1,5-6.1,9.6-7.8,14.8
				c-1.8,5.4-2.1,11.3-2.5,17.1l-0.7,10.7c5.6-3.4,10.8-7.7,15.9-12l14.8-12.5c6.8-5.7,13.7-11.7,17.9-19.4
				c-12-24.8-30.6-45.9-53.4-61l-20.7,23.6l-30.4,26.4l-5.2,6.3l2.1,10.7c1.8-1.7,4-2.8,6-3.8c1.4-0.7,2.7-1.3,3.8-2.1
				c1.5-1.1,3.5-0.7,4.6,0.8c1.1,1.5,0.7,3.5-0.8,4.6c-1.5,1.1-3.1,1.9-4.7,2.7c-2.1,1-4,2-5.1,3.4c-1.7,2.1-2.9,6.1-4,9.7
				c-0.5,1.6-0.9,3.1-1.4,4.4c-2.8,7.7-5.3,15.5-7.6,23.4c4.8-3,10.1-5.5,15.1-7.8l3.5-1.7c1.6-0.8,3.6-0.1,4.4,1.6
				c0.8,1.6,0.1,3.6-1.6,4.4l-3.6,1.7c-7.4,3.4-15.6,7.3-20.8,12.4c-4.7,18.6-7.9,37.5-9.4,56.5l23.3,36.5
				c8.1-4.6,16.4-8.8,25.1-11.7l1.7-4l3.1-11.6c-6.2-2.3-11.5-4.9-16-8.2c-6.9-4.9-12-11.2-14.8-18.1c-0.4-0.9-0.7-1.9-1.1-2.8
				c-1.3-3.6-2.5-6.9-5.1-8.2c-1.6-0.8-2.3-2.8-1.5-4.4c0.8-1.6,2.8-2.3,4.4-1.5c4.9,2.4,6.7,7.4,8.3,11.8c0.3,0.9,0.6,1.8,1,2.6
				c0.7,1.7,1.6,3.4,2.7,5c2.8-6.4,4-13.5,3.1-20.5c-0.2-1.8,1-3.5,2.9-3.7c1.8-0.2,3.5,1,3.7,2.9c1.2,9.3-0.6,18.8-4.9,27.1
				c1.6,1.6,3.3,3.1,5.2,4.5c3.9,2.8,8.5,5.1,13.9,7.1l6.8-25.8c-0.5-0.5-0.9-1.1-1.4-1.6C231.7,185.1,229.2,180.6,226.7,176.3z"/>
			<path style="fill:#FFFFFF;" d="M29.3,95.4c-1,2-1.9,3.9-2.8,5.9c2.9,0,5.7-0.1,8.6-0.5C33.2,98.9,31.3,97.1,29.3,95.4z"/>
			<path style="fill:#FFFFFF;" d="M166.1,61.2c0.3,2,1,4,1.7,6.1c0.4,1,0.7,2,1.1,3.1c1.2-1.5,2.3-3,3.5-4.6
				c2.8-3.9,5.3-8.1,4.2-11.4c-0.6-1.7,0.3-3.6,2.1-4.2c1.7-0.6,3.6,0.3,4.2,2.1c2.1,6.2-1.2,12-5,17.4c-2.2,3.1-4.5,6.2-7,8.8
				c0.3,2,0.6,4,0.9,6c0.6,4.9,1.3,9.6,2.8,13.8l11.3-13.7l-0.7-3.5c-0.8-3.8,0-6.6,2.2-8.1c1.5-1.1,3.5-0.7,4.6,0.8
				c0.7,1.1,0.8,2.4,0.2,3.5L211,60.6c-6.8-5-13.3-10.5-19.2-16.5c-1.3-1.3-1.3-3.4,0.1-4.7c1.3-1.3,3.4-1.3,4.7,0.1
				c5.4,5.6,11.4,10.7,17.7,15.4c1.5-6,1.8-12.2,0.8-18.3c-0.3-1.8,0.9-3.5,2.7-3.8c1.8-0.3,3.5,0.9,3.8,2.7c0.8,5.3,0.8,10.7,0,16
				l18.5-21.2c-16.8-9.3-35.5-15.5-55.4-17.9c0.7,3.5,0.2,7.5-1.5,11.4c-1.7,3.7-4.1,6.7-6.4,9.7l-1.7,2.2
				c-5.2,6.6-7.6,9.5-8.6,17.9C166.1,56.1,165.8,58.8,166.1,61.2z"/>
			<path style="fill:#FFFFFF;" d="M139.5,14.7c0-0.5,0.2-0.9,0.4-1.3c-3.8,0.7-7.6,1.4-11.3,2.4l5.5,17.4
				C137,28,138.9,21.6,139.5,14.7z"/>
			<path style="fill:#FFFFFF;" d="M114.7,22.3c-1.3,7.4-3.9,14.6-7.5,20.9l2.4,6l7.7,20.9c3.2-3.3,6.6-7.4,9.1-12
				c2.1-4,4.4-10.1,3.4-16.8c0,0,0-0.1,0-0.1l-7.5-23.6c-2.7,0.8-5.4,1.7-8,2.6C114.6,20.8,114.8,21.5,114.7,22.3z"/>
			<path style="fill:#FFFFFF;" d="M171.1,21L172,29c2.1-2.6,4-5.1,5.2-7.9c1.3-3,1.7-5.9,0.9-8.2c-0.1-0.4-0.1-0.7-0.1-1.1
				c-2.2-0.2-4.3-0.3-6.5-0.4c0.7,1,0.8,2.5,0.1,3.6C170.7,16.4,170.8,18.6,171.1,21z"/>
			<path style="fill:#FFFFFF;" d="M136.4,41.9c0.7,7.8-1.9,14.8-4.3,19.3c-3.5,6.5-8.4,11.8-12.4,15.8l0.8,2.3l5.4,14.4
				c2.9-4.5,5.1-9.4,6.4-14.6c0.5-1.8,2.3-2.8,4-2.3c1.8,0.5,2.8,2.3,2.3,4c-1.8,6.7-4.7,12.9-8.6,18.6c-0.4,0.6-1,0.9-1.7,1.2
				l2.5,6.7l3.2,12.2c4.5-2.3,7.8-6,9.8-9.1c3.1-4.8,5.2-10.3,7.2-15.7c0.8-2,1.4-3.9,1.7-5.6c-1.2-0.3-2.2-1.2-2.4-2.5
				c-2.9-13.5-3.4-27.2-1.4-40.9c0.3-1.8,1.9-3,3.7-2.8c1.8,0.3,3.1,1.9,2.8,3.7c-1.6,11.5-1.4,23,0.6,34.3c2.7-0.9,5.1-2.5,7.3-4.6
				c-0.3-1.3-0.6-2.6-1-3.9c-0.3-0.9-0.6-1.9-1-2.8c-0.8-2.4-1.7-4.8-2.1-7.5c-0.4-3.2,0-6.4,0.3-9.3c0.9-7.7,3-11.9,6.3-16.5
				c0-0.1-0.1-0.2-0.1-0.3l-1.5-14.3c-0.3-2.7-0.7-6.8,1.4-10.3c0.1-0.1,0.2-0.2,0.3-0.3c-0.1,0-0.1,0-0.2,0c-7.1,0-14.1,0.5-21,1.5
				c0.8,0.7,1.2,1.7,1.1,2.7C145.1,25.6,141.6,35.2,136.4,41.9z"/>
			<path style="fill:#FFFFFF;" d="M43.3,100.1c0.7,0.4,1.3,1,1.6,1.8c4.2,5,7.9,10.3,11.5,15.5c0.8-2.8,1.4-5.6,1.4-8.5
				c0-3-0.8-6-2.2-8.7c-0.8-1.6-0.2-3.6,1.4-4.4c1.6-0.8,3.6-0.2,4.4,1.4c1.8,3.6,2.9,7.6,2.9,11.6c0.1,5.5-1.6,10.8-3.4,15.5
				c0.2,0.3,0.5,0.7,0.7,1.1L75.2,146c1.1-2.4,2.1-4.8,2.6-7c1.3-6.2,1.7-12.8,2.1-19.1c0.7-11.4,1.5-23.2-0.9-34.3
				c-0.6-2.8-1.4-5.6-2.3-8.3c-6.8-1.2-13.3-3.5-19.5-6.7c-1.6-0.8-2.2-2.8-1.4-4.5c0.8-1.6,2.8-2.2,4.5-1.4c4.3,2.3,8.9,4,13.6,5.2
				c-2-4.7-4.2-9.3-6.3-13.8c-0.8-1.6-0.1-3.6,1.5-4.4c1.6-0.8,3.6-0.1,4.4,1.5c4.7,9.8,9.6,20,11.9,31c0.8,3.9,1.2,7.7,1.5,11.6
				c3-4.4,3.7-10.7,4-16.9c0.1-1.8,1.7-3.3,3.5-3.1c1.8,0.1,3.2,1.7,3.1,3.5c-0.5,8.9-1.6,18-8.3,23.9c-0.6,0.5-1.3,0.8-2.1,0.8
				c0,5.5-0.4,10.9-0.7,16.3c-0.4,6.6-0.8,13.4-2.2,20c-0.8,3.8-2.5,7.4-4.2,10.9c-1.7,3.5-3.2,6.7-3.7,9.6
				c-0.3,1.9,0.9,3.7,2.7,6.6c0.8,1.2,1.7,2.6,2.4,4l16.2,11c-0.1-0.1-0.1-0.3-0.2-0.4c-0.4-1.1-1.2-2.2-1.9-3.4
				c-1.4-2.3-2.8-4.8-3.3-7.2c-0.1-0.3-0.1-0.7-0.1-1.1l-5.5-3.8c-2-1.4-4.9-3.4-6-6.9c-0.3-1-0.1-2.1,0.5-2.9
				c1.2-1.6,3.3-2.2,5.2-1.4c1.6,0.7,2.4,2.4,1.8,4.1c0.6,0.6,1.4,1.1,2.2,1.7l2.5,1.7c0.2-1.3,0.4-2.4,0.4-3.4
				c0.1-4.1-0.3-8.1-1.2-12c-0.4-1.8,0.7-3.5,2.5-3.9c1.8-0.4,3.5,0.7,3.9,2.5c1,4.4,1.4,9,1.3,13.5c0,1.7-0.3,3.4-0.6,5.1
				c-0.4,2.1-0.7,4.2-0.5,5.6c0.3,1.3,1.4,3.3,2.5,5.1c0.8,1.4,1.7,2.9,2.3,4.2c0.6,1.4,1.1,2.8,1.7,4.1c0.8,1.9,1.5,3.8,2.4,5.6
				l13.9,9.4c-3.3-8-5.9-16.3-8.5-24.3l-0.9-2.8c-0.4-1.3-0.9-2.6-1.3-3.9c-1.9-5.7-3.8-11.2-3.6-17.8c0-0.5,0-1.1,0.1-1.6
				c-0.3-0.4-0.6-0.8-0.7-1.4c-0.9-3.8-3.3-7.2-5.8-10.8c-2.7-3.7-5.4-7.6-6.7-12.3c-0.5-1.8,0.5-3.6,2.3-4.1
				c1.8-0.5,3.6,0.5,4.1,2.3c1,3.6,3.3,6.8,5.7,10.2c0.6,0.9,1.2,1.7,1.8,2.6c0.2-3.5,0.5-7.1,0.8-11.1c0.1-1.8,1.8-3.1,3.5-3
				c1.8,0.1,3.2,1.7,3,3.5c-0.8,10.1-1.2,18.3-1.4,25.8c-0.2,5.5,1.4,10.2,3.2,15.5c0.4,1.3,0.9,2.6,1.3,4l0.9,2.8
				c3.6,11.4,7.4,23.1,13.1,33.7l0.3,0.2l34.7,18.1l-15.3-24l-24.2-58l-8.3-32.1l-10.2-27l-11-29.9l-8.8-21.9
				C65.8,45.4,46,65.4,32.5,89.4C36.4,92.7,40,96.3,43.3,100.1z"/>
			<path style="fill:#FFFFFF;" d="M274,200.5h-27.8l-9.2,34.6c10.5-1.6,20.8-1,30.7,1.1c1.4-2.9,3.3-5.8,5.2-8.6
				c2.8-4.2,5.7-8.6,6.5-12.3C280.3,211.2,277,205.5,274,200.5z"/>
			<path style="fill:#FFFFFF;" d="M160.5,142.8c1.6-0.8,3.6-0.1,4.4,1.5l10.3,21.4c0.8-3.6,1.7-7.2,2.6-10.8c0-0.2,0.1-0.5,0.2-0.7
				c0.3-1.2,0.5-2.3,0.8-3.5c2.7-10.1,5.9-20.2,9.5-29.9c0.4-1.2,0.9-2.6,1.3-4c0.8-2.7,1.7-5.6,3-8.2c-1.3-0.2-2.4-1.2-2.7-2.6
				l-1.3-6.6l-10.9,13.3l-30.5,45.1l15.7,37.5l6,9.3c1-9.5,2.4-18.9,4.2-28.3c0-0.1-0.1-0.1-0.1-0.2l-14-29.1
				C158.2,145.6,158.9,143.6,160.5,142.8z"/>
			<path style="fill:#FFFFFF;" d="M165,85.3c-0.1-0.5-0.1-1-0.2-1.5c-1.6,1.1-3.3,2.1-5.1,2.9c0.1,3.8-1.2,7.4-2.3,10.2
				c-2.1,5.7-4.4,11.6-7.9,17c-2.6,4-7.1,9.2-13.6,12l3.4,13.2l2.4,5.7l26.6-39.4l1.2-1.4C166.7,98.2,165.9,91.7,165,85.3z"/>
			<path style="fill:#FFFFFF;" d="M285.6,217.4c-1.2,4.7-4.2,9.3-7.2,13.8c-1.5,2.3-3,4.5-4.1,6.6c6.8,2,14.4,6,20.6,9
				c0.3,0.3,1-0.5,1-0.5s4.2-8,6.9-13.3c-0.2-0.1-0.4-0.2-0.6-0.3C296.3,228,290.7,222.9,285.6,217.4z"/>
			<path style="fill:#FFFFFF;" d="M179.1,243.9l-1.8-1l-27.1,14.9l-0.5-0.1c-4.8,6-9.5,12.1-13.8,18.4c-0.6,0.9-1.7,1.5-2.7,1.5
				c-0.6,0-1.3-0.2-1.8-0.6c-1.5-1-1.9-3.1-0.9-4.6c3.7-5.4,7.6-10.7,11.8-16l-83.4-13.7l-3.9-1.6c-1.2,0.9-2.5,1.7-3.8,2.3
				c-4,2.1-8.2,4.1-12.4,5.8c8.6,12.9,19.1,24.3,31.1,34c-0.5-0.5-1-0.9-1.5-1.5c4.7,2.8,10,5,15.7,6.3c14.9,3.4,31.8,1.6,47.3-3.2
				c15.6-4.8,30-12.4,43.7-20.8c4.2-2.6,8.5-5.2,12.8-7.9l-7.7-12C179.8,244.2,179.4,244.1,179.1,243.9z"/>
			<path style="fill:#FFFFFF;" d="M27.7,229.9c2.2,4.7,4.7,9.3,7.4,13.8c4.1-1.7,8.2-3.6,12.2-5.6L27.7,229.9z"/>
			<path style="fill:#FFFFFF;" d="M306.1,183.3l11.9-1.4c0.6-4.8,0.9-9.8,1-14.7L306.1,183.3z"/>
			<path style="fill:#FFFFFF;" d="M123.7,241.4c-3.6-5.8-9.5-10.9-17-14.6c-7.6-3.8-16.1-6-24.3-8.2c-2.5-0.7-5-1.3-7.4-2
				c-8.2-2.3-17.2-5.4-25.1-10.7c-0.4,0.2-0.8,0.3-1.2,0.3c-1.4,0-3,0-4.8,0.1c-2.2,0.1-4.7,0.1-7.1,0.1c-6.3,0-13-0.4-18.4-2.1
				c0.9,3.4,2,6.8,3.1,10.1l41.3,17.1L123.7,241.4z"/>
			<path style="fill:#FFFFFF;" d="M281,199.3c1.3,2.2,2.5,4.4,3.4,6.8c6.3,7.7,13.5,14.7,21.2,20.9c4.7-10.4,8.3-21.4,10.5-32.9
				l-23.5,2.8L281,199.3z"/>
			<path style="fill:#FFFFFF;" d="M107.8,22.7c-2.6,1-5.1,2.2-7.6,3.3l3.6,9.1C105.6,31.1,106.9,26.9,107.8,22.7z"/>
			<path style="fill:#FFFFFF;" d="M42.4,199.7c-3.7-3.8-6.8-8.2-9.7-12.5c-2.9-4.2-5.5-8.1-8.8-11.5c-1.3-1.3-1.2-3.4,0.1-4.7
				c1.3-1.3,3.4-1.2,4.7,0.1c3.7,3.8,6.6,8.1,9.5,12.3c3.2,4.6,6.2,9,9.9,12.6c7.9,7.6,18.9,11.5,28.6,14.2
				c-4.5-7.1-10.3-14.9-17.1-19.9c-1.5-1.1-1.8-3.1-0.7-4.6c1.1-1.5,3.1-1.8,4.6-0.7c9.6,7,17,18.3,22.4,27.7
				c5,1.3,10.1,2.8,15.1,4.6c-0.7-4.1-2.3-8-4.7-11.5c-1.1-1.5-0.7-3.5,0.8-4.6c1.5-1.1,3.6-0.7,4.6,0.8c3.5,5,5.7,10.9,6.2,17
				c0,0.4,0,0.7-0.1,1c0.6,0.3,1.2,0.5,1.8,0.8c10.6,5.2,18.4,13,22.2,21.9l16.2,2.6l16.6-9.1l-38.2-20l-53.5-36.3l-28.4-10.2
				l-31.3-13.4c-0.1,2.6-0.2,5.2-0.2,7.8c0,11,1.2,21.6,3.4,32C21.4,200,33.6,199.9,42.4,199.7z"/>
		</g>
	</g>
</svg>
