<?xml version="1.0" standalone="no"?>
<!DOCTYPE svg PUBLIC "-//W3C//DTD SVG 20010904//EN"
 "http://www.w3.org/TR/2001/REC-SVG-20010904/DTD/svg10.dtd">
<svg version="1.0" xmlns="http://www.w3.org/2000/svg"
 width="1000.000000pt" height="1000.000000pt" viewBox="0 0 1000.000000 1000.000000"
 preserveAspectRatio="xMidYMid meet">
<metadata>
Created by potrace 1.11, written by Peter Selinger 2001-2013
</metadata>
<g transform="translate(0.000000,1000.000000) scale(0.100000,-0.100000)"
fill="#000000" stroke="none">
<path d="M4715 9993 c-418 -21 -907 -116 -1319 -255 -940 -316 -1793 -933
-2386 -1723 -500 -666 -814 -1401 -944 -2205 -77 -471 -86 -975 -26 -1445 229
-1802 1434 -3353 3120 -4014 464 -182 876 -280 1405 -332 195 -20 709 -17 920
5 485 50 914 153 1345 323 1548 609 2706 1968 3055 3585 79 368 109 656 109
1063 1 381 -19 601 -85 950 -214 1140 -844 2194 -1749 2931 -905 736 -2033
1133 -3188 1122 -108 -1 -224 -3 -257 -5z m285 -331 c0 -5 -7 -23 -16 -41 -38
-77 -40 -141 -8 -439 l29 -280 -33 -48 c-76 -112 -121 -233 -146 -394 -38
-244 -32 -320 43 -555 71 -218 70 -197 9 -245 -55 -44 -138 -90 -162 -90 -15
0 -26 61 -47 260 -17 149 -14 519 5 668 17 140 11 174 -35 197 -56 30 -120 7
-138 -47 -24 -77 -36 -253 -35 -528 0 -295 10 -416 54 -643 18 -94 22 -105 55
-133 l35 -32 -26 -83 c-63 -200 -169 -438 -250 -561 -68 -101 -266 -279 -288
-258 -2 3 -27 91 -55 195 -27 105 -66 231 -85 280 l-34 90 23 12 c74 40 285
492 285 611 0 78 -96 121 -154 70 -16 -16 -37 -60 -61 -133 -34 -107 -135
-324 -159 -344 -9 -8 -36 54 -106 238 l-93 249 81 89 c287 314 406 557 419
858 6 118 6 121 43 175 117 173 207 421 240 666 11 79 10 94 -4 121 -16 31
-16 32 12 37 57 11 243 28 392 35 85 5 167 9 183 9 15 1 27 -2 27 -6z m307 -8
l52 -7 12 -54 c16 -69 2 -150 -41 -241 -40 -86 -141 -227 -150 -210 -10 18
-31 234 -31 311 0 40 6 77 15 96 19 35 20 64 6 92 -10 18 -7 19 37 19 26 0 71
-3 100 -6z m393 -44 c390 -60 785 -174 1150 -332 120 -52 332 -157 363 -180
17 -12 -5 -40 -259 -331 -153 -174 -279 -316 -280 -314 -1 1 2 43 8 92 11 96
4 313 -11 380 -20 84 -105 113 -163 55 l-30 -30 9 -103 c11 -140 7 -292 -12
-400 -9 -50 -18 -93 -20 -95 -11 -12 -236 173 -437 360 -155 144 -172 151
-230 99 -27 -24 -33 -36 -33 -71 0 -41 5 -46 120 -159 132 -128 251 -231 392
-338 l91 -70 -281 -245 -282 -246 -6 45 c-9 76 -74 112 -138 77 -77 -42 -98
-117 -74 -261 l16 -93 -48 -57 c-26 -32 -102 -124 -168 -205 -67 -81 -125
-144 -128 -140 -16 16 -51 184 -79 379 -24 165 -27 210 -17 222 6 9 33 41 58
71 26 30 84 107 129 170 130 182 180 297 180 414 0 120 -37 186 -105 186 -76
0 -113 -55 -93 -139 20 -89 -23 -191 -160 -375 l-76 -101 -43 130 c-37 114
-42 141 -43 220 0 100 20 251 46 335 25 86 77 177 166 290 255 326 313 419
343 554 11 48 16 104 13 151 -2 41 -1 75 2 75 3 0 61 -9 130 -20z m-1495 -57
c-25 -191 -81 -398 -140 -512 l-23 -45 -65 204 c-95 299 -101 319 -95 326 4 3
77 20 165 39 87 18 159 34 161 34 2 1 0 -20 -3 -46z m-405 -440 l114 -358 0
-110 c-2 -129 -28 -234 -95 -368 -65 -133 -270 -402 -289 -380 -4 4 -47 116
-95 248 -48 132 -114 309 -147 393 l-60 154 55 116 c97 205 175 469 164 551
l-5 38 112 36 c61 20 116 36 122 37 6 0 62 -161 124 -357z m-575 104 c-26
-101 -85 -267 -95 -267 -11 0 -111 263 -103 271 11 9 217 99 220 95 2 -2 -8
-46 -22 -99z m-388 -500 c73 -182 209 -539 302 -792 93 -253 237 -638 319
-856 149 -394 151 -398 276 -880 l126 -484 363 -871 364 -871 231 -362 c127
-198 228 -361 224 -360 -4 0 -241 123 -527 272 l-520 273 -37 69 c-99 186
-205 466 -364 960 -134 416 -141 441 -154 537 -12 84 -2 365 25 738 11 160 11
189 -1 216 -29 61 -99 71 -149 21 -33 -33 -33 -33 -40 -162 -4 -70 -10 -151
-14 -179 l-6 -51 -77 111 c-72 104 -148 243 -148 270 0 7 -12 26 -26 43 -22
26 -33 31 -70 31 -36 0 -50 -5 -69 -26 -56 -60 -14 -182 142 -410 197 -289
228 -360 236 -549 4 -68 15 -156 27 -204 38 -156 279 -892 352 -1075 21 -54
37 -100 35 -103 -5 -5 -400 261 -414 279 -5 7 -36 76 -67 153 -32 77 -89 196
-127 265 -38 69 -71 139 -75 156 -3 17 4 93 16 170 26 157 24 302 -6 474 -18
105 -32 132 -74 150 -37 15 -75 6 -107 -26 -28 -28 -28 -45 -3 -208 12 -81 15
-278 5 -318 l-7 -27 -66 48 c-61 43 -68 51 -73 89 -6 49 -29 77 -75 92 -45 15
-95 -1 -129 -41 -33 -40 -32 -82 5 -145 34 -61 79 -101 218 -195 56 -39 102
-76 102 -84 0 -34 37 -118 97 -223 36 -62 63 -116 60 -119 -3 -3 -112 67 -243
155 l-237 161 -65 103 c-35 57 -71 117 -78 135 -32 75 -14 148 101 393 110
235 137 338 164 620 17 166 41 575 41 682 l0 98 33 13 c18 8 54 38 79 66 116
129 173 296 198 580 10 122 2 158 -39 181 -36 18 -90 12 -116 -14 -28 -28 -30
-35 -44 -187 -12 -131 -39 -247 -76 -328 -30 -63 -45 -57 -45 18 0 131 -67
431 -140 629 -83 227 -247 575 -286 610 -37 32 -88 30 -125 -7 -19 -19 -29
-40 -29 -59 0 -16 25 -83 56 -148 124 -263 145 -314 125 -314 -29 0 -241 75
-337 120 -48 22 -97 40 -110 40 -29 0 -80 -43 -88 -75 -4 -14 0 -40 8 -59 12
-29 29 -42 93 -74 113 -57 260 -110 408 -147 l130 -33 31 -109 c66 -226 89
-455 80 -783 -10 -393 -45 -799 -82 -960 -18 -82 -74 -224 -84 -213 -13 14
-412 627 -417 640 -3 7 9 54 26 105 48 146 63 232 64 358 0 127 -17 214 -63
316 -32 70 -60 94 -111 94 -79 0 -113 -84 -69 -170 58 -113 65 -283 19 -452
l-10 -39 -86 123 c-47 68 -123 170 -167 226 -45 57 -88 115 -97 128 -9 14 -96
104 -193 200 l-177 176 57 96 c334 562 812 1074 1339 1435 124 84 316 207 325
207 3 0 64 -150 137 -333z m4828 99 c576 -406 1060 -955 1406 -1595 l83 -154
-28 -51 c-42 -77 -151 -208 -262 -316 -99 -96 -730 -634 -899 -767 -49 -39
-130 -99 -180 -133 l-90 -61 -3 31 c-5 51 27 507 43 605 34 212 89 340 267
625 189 304 248 424 289 589 24 99 21 130 -16 167 -28 28 -72 31 -115 9 -29
-15 -39 -36 -60 -135 -26 -116 -104 -278 -227 -468 l-53 -83 -77 53 c-43 29
-119 94 -171 143 l-93 90 45 36 c70 56 134 137 177 224 53 109 69 179 69 303
0 101 -1 104 -29 133 -39 39 -100 41 -136 4 -23 -22 -25 -32 -25 -112 0 -156
-45 -270 -148 -372 l-64 -65 -31 50 c-45 73 -93 180 -128 288 -34 107 -59 136
-116 136 -48 0 -93 -45 -93 -93 0 -19 16 -81 36 -138 113 -324 328 -606 604
-792 41 -27 76 -51 78 -52 1 -1 -20 -48 -47 -103 -81 -161 -116 -288 -141
-507 -20 -178 -80 -1246 -80 -1426 0 -234 16 -360 66 -536 6 -23 5 -23 -93
-23 l-98 0 -65 76 c-90 105 -125 157 -220 323 -96 167 -127 240 -136 313 -7
63 13 156 55 261 87 213 98 236 154 297 104 115 214 295 267 438 27 71 25 104
-6 141 -21 26 -33 31 -68 31 -56 0 -74 -20 -124 -138 -38 -87 -102 -202 -138
-247 -16 -20 -16 -20 -27 -1 -7 11 -45 70 -86 130 -105 157 -125 203 -118 280
3 35 17 89 33 126 30 68 41 89 168 309 97 169 149 290 150 354 1 42 -3 52 -27
73 -34 29 -91 32 -124 6 -12 -9 -34 -51 -49 -92 -14 -41 -38 -97 -51 -125 -40
-80 -135 -235 -143 -235 -18 0 -92 236 -105 335 -18 134 -71 183 -154 140 -58
-29 -61 -84 -19 -270 26 -114 64 -218 123 -335 l46 -92 -20 -61 c-29 -88 -35
-154 -21 -223 18 -86 47 -145 135 -273 90 -132 118 -189 117 -242 -1 -24 -22
-86 -55 -162 -30 -67 -65 -154 -77 -192 -28 -90 -37 -234 -20 -318 23 -107
197 -427 318 -586 32 -40 63 -82 70 -91 11 -16 -1 -73 -87 -401 -56 -210 -103
-385 -106 -387 -11 -11 -219 85 -329 151 -61 37 -201 144 -229 175 -16 18 -15
23 17 93 42 92 80 208 103 319 25 120 25 411 1 456 -34 62 -119 69 -161 12
-18 -24 -19 -41 -18 -180 1 -105 -3 -179 -14 -238 -20 -103 -74 -272 -86 -265
-17 11 -69 116 -107 215 -52 139 -94 222 -140 272 -92 102 -166 125 -223 69
-50 -51 -38 -112 32 -157 52 -32 88 -90 134 -216 80 -216 168 -360 303 -497
155 -157 359 -283 630 -391 17 -7 32 -19 32 -27 0 -29 -90 -350 -113 -402
l-23 -54 -137 -53 c-144 -56 -379 -168 -533 -253 l-90 -50 -353 551 -352 551
16 166 c44 456 124 927 241 1420 24 103 31 118 63 148 97 91 324 222 591 343
131 58 160 84 160 138 0 48 -21 77 -65 92 -31 10 -42 8 -117 -26 -126 -56
-407 -197 -463 -232 -27 -17 -51 -30 -52 -28 -4 4 106 355 163 521 31 88 81
237 111 330 62 190 102 276 147 310 17 13 83 50 146 84 63 34 125 73 138 87
73 83 -44 201 -136 135 -15 -10 -63 -37 -107 -59 -44 -22 -104 -56 -132 -75
-52 -35 -53 -35 -58 -14 -3 12 -18 84 -34 159 l-29 136 78 96 c63 77 173 179
542 500 434 378 473 415 623 587 376 431 456 519 468 512 7 -3 57 -38 112 -77z
m-2677 -1494 c25 -172 53 -289 92 -384 l28 -69 -205 -302 c-112 -166 -300
-443 -416 -615 -116 -172 -214 -309 -218 -305 -21 23 -82 201 -124 367 -45
172 -47 189 -32 200 9 6 45 27 79 46 83 46 242 203 308 305 130 200 310 656
310 786 0 36 3 40 48 63 26 13 56 31 67 40 11 8 25 16 31 16 6 0 20 -63 32
-148z m-3939 -346 c9 -11 4 -15 -31 -19 -61 -9 -206 -12 -213 -6 -3 3 13 45
35 93 l41 88 78 -71 c43 -39 83 -77 90 -85z m4655 -73 c21 -113 37 -149 72
-165 16 -8 23 -17 20 -27 -23 -70 -188 -549 -205 -596 -58 -161 -161 -511
-231 -788 -43 -170 -80 -311 -83 -313 -2 -2 -75 145 -163 327 -87 182 -167
337 -178 345 -11 8 -39 14 -62 14 -35 0 -47 -5 -68 -31 -14 -17 -26 -42 -26
-57 0 -14 97 -226 215 -471 118 -245 215 -455 215 -466 0 -11 -14 -101 -30
-200 -17 -99 -44 -280 -59 -403 -16 -122 -31 -225 -33 -228 -3 -2 -44 57 -92
131 -81 127 -103 175 -322 696 -129 308 -234 565 -234 570 0 5 203 310 450
677 361 534 483 708 618 874 92 114 170 207 173 207 3 1 13 -43 23 -96z m3570
-110 c97 -252 178 -518 226 -733 l31 -142 -79 -86 c-137 -150 -250 -252 -305
-277 -66 -30 -125 -39 -161 -25 -28 10 -28 11 -21 73 12 116 35 242 72 388 23
94 34 155 29 173 -15 59 -110 83 -157 40 -48 -43 -139 -463 -139 -638 0 -47 7
-83 21 -117 l22 -50 -359 -539 -359 -539 -182 -1 -182 0 -20 55 c-67 178 -82
414 -56 845 9 157 18 285 18 286 244 135 326 196 797 593 514 434 619 532 739
693 19 26 38 48 41 48 3 0 14 -21 24 -47z m-7999 -80 c147 -191 355 -492 355
-515 0 -7 13 -26 29 -43 16 -16 133 -190 261 -385 128 -195 237 -358 243 -362
6 -4 3 -25 -11 -60 -29 -71 -52 -164 -52 -208 0 -34 18 -114 35 -153 6 -15 -3
-13 -71 11 -44 16 -174 64 -290 107 l-212 77 -75 151 c-137 279 -695 1184
-783 1273 l-36 35 22 55 22 54 102 0 c96 0 354 25 364 35 17 17 45 -4 97 -72z
m-572 -441 c163 -246 592 -965 578 -970 -9 -3 -830 346 -845 359 -17 15 60
412 125 647 25 89 34 110 44 102 8 -6 51 -68 98 -138z m8886 -779 c7 -70 13
-146 16 -168 4 -40 0 -46 -330 -461 l-334 -421 -98 -12 c-54 -7 -188 -32 -298
-55 -110 -24 -201 -43 -203 -41 -2 2 145 226 326 497 l330 495 69 6 c136 11
241 71 393 226 122 124 112 129 129 -66z m-8722 -404 c338 -145 589 -245 903
-358 l435 -157 811 -550 811 -549 566 -295 c311 -162 562 -298 559 -301 -4 -4
-115 -66 -247 -139 l-240 -132 -145 22 c-80 12 -190 29 -244 39 l-100 16 -46
80 c-68 120 -106 171 -189 259 -121 126 -286 246 -435 317 l-58 28 -4 55 c-12
150 -111 409 -189 491 -27 29 -39 35 -74 35 -47 0 -85 -29 -97 -74 -6 -26 -5
-30 64 -156 41 -76 75 -166 87 -232 l7 -37 -51 20 c-46 17 -317 97 -381 112
-17 4 -36 25 -59 64 -190 322 -401 584 -589 735 -60 48 -80 58 -111 58 -55 0
-91 -38 -91 -96 0 -47 -7 -38 135 -161 44 -39 118 -115 164 -171 115 -138 253
-336 237 -340 -22 -5 -303 92 -421 144 -226 102 -391 221 -524 381 -44 51
-134 173 -202 270 -132 190 -267 363 -302 388 -27 19 -86 19 -113 0 -28 -19
-48 -69 -40 -99 3 -13 37 -60 74 -103 38 -44 101 -125 140 -181 40 -56 104
-148 144 -204 40 -57 108 -145 151 -197 l79 -94 -228 6 c-241 6 -374 23 -473
60 -86 31 -94 44 -119 188 -53 300 -72 526 -72 835 0 123 2 224 4 224 2 0 215
-90 473 -201z m8739 -266 c-8 -142 -22 -293 -29 -300 -6 -5 -329 -44 -343 -41
-11 3 360 478 373 478 3 0 2 -62 -1 -137z m-132 -883 c-54 -217 -130 -450
-210 -643 -51 -123 -58 -136 -73 -124 -207 171 -423 379 -553 533 -42 49 -88
120 -122 187 -30 59 -53 107 -51 107 3 0 81 16 174 35 98 21 321 54 523 79
312 37 353 40 356 26 1 -8 -18 -99 -44 -200z m-1182 -42 c125 -217 149 -314
108 -433 -25 -74 -58 -132 -180 -320 -53 -82 -110 -174 -126 -203 -33 -61 -9
-57 -200 -28 -172 27 -379 37 -541 26 -82 -6 -163 -13 -180 -16 -22 -4 -33 -2
-33 5 0 7 56 224 125 484 69 260 130 489 136 510 l10 37 422 0 423 0 36 -62z
m-7522 -93 c85 -12 198 -15 428 -15 l313 2 67 -40 c238 -141 411 -204 957
-351 143 -39 321 -91 395 -116 266 -91 485 -214 633 -358 77 -75 164 -184 154
-193 -3 -3 -414 61 -914 142 l-908 147 -624 258 c-343 142 -626 260 -628 263
-5 5 -93 287 -93 298 0 3 24 0 53 -8 28 -8 104 -21 167 -29z m8223 -722 c54
-45 105 -86 114 -91 13 -8 1 -39 -91 -215 -59 -114 -111 -209 -116 -212 -4 -3
-93 36 -197 86 -190 91 -400 179 -428 179 -8 0 -15 3 -15 8 0 4 39 68 87 142
135 211 191 309 225 392 l32 77 145 -142 c80 -78 190 -179 244 -224z m-7856
-130 c156 -64 283 -120 283 -123 0 -10 -359 -175 -365 -168 -21 24 -215 387
-215 403 0 10 18 3 297 -112z m623 -258 c3 -2 570 -96 1260 -210 690 -114
1256 -208 1258 -210 2 -2 -50 -74 -116 -162 -201 -267 -242 -330 -242 -375 0
-73 75 -120 137 -85 12 7 56 62 99 122 69 99 196 269 308 412 23 29 46 52 52
52 6 1 192 100 413 222 295 162 408 219 424 215 57 -15 86 -48 196 -221 62
-97 111 -178 109 -179 -21 -17 -489 -300 -615 -372 -621 -356 -1173 -557
-1698 -619 -167 -19 -470 -19 -617 0 -203 27 -384 79 -542 156 -43 21 -82 36
-86 34 -12 -7 -258 215 -405 366 -78 79 -188 201 -245 270 -103 123 -263 340
-275 369 -4 11 13 23 62 44 90 39 350 170 387 195 29 19 29 19 80 0 27 -11 53
-22 56 -24z"/>
</g>
</svg>
